<?xml version="1.0" encoding="UTF-8" standalone="no"?>
<!-- Created with Inkscape (http://www.inkscape.org/) -->

<svg
   xmlns:dc="http://purl.org/dc/elements/1.1/"
   xmlns:cc="http://creativecommons.org/ns#"
   xmlns:rdf="http://www.w3.org/1999/02/22-rdf-syntax-ns#"
   xmlns:svg="http://www.w3.org/2000/svg"
   xmlns="http://www.w3.org/2000/svg"
   xmlns:sodipodi="http://sodipodi.sourceforge.net/DTD/sodipodi-0.dtd"
   xmlns:inkscape="http://www.inkscape.org/namespaces/inkscape"
   width="34.266933mm"
   height="21.261097mm"
   viewBox="0 0 34.266933 21.261097"
   id="svg4136"
   version="1.1"
   inkscape:version="0.91 r13725"
   sodipodi:docname="sis.svg">
  <defs
     id="defs3" />
  <sodipodi:namedview
     id="base"
     pagecolor="#ffffff"
     bordercolor="#666666"
     borderopacity="1.0"
     inkscape:pageopacity="0.0"
     inkscape:pageshadow="2"
     inkscape:zoom="4.8"
     inkscape:cx="67.496612"
     inkscape:cy="-1.734062"
     inkscape:document-units="mm"
     inkscape:current-layer="layer1"
     showgrid="false"
     inkscape:window-width="1858"
     inkscape:window-height="1057"
     inkscape:window-x="-8"
     inkscape:window-y="-8"
     inkscape:window-maximized="1"
     fit-margin-top="0"
     fit-margin-left="0"
     fit-margin-right="0"
     fit-margin-bottom="0" />
  <metadata
     id="metadata4140">
    <rdf:RDF>
      <cc:Work
         rdf:about="">
        <dc:format>image/svg+xml</dc:format>
        <dc:type
           rdf:resource="http://purl.org/dc/dcmitype/StillImage" />
        <dc:title></dc:title>
      </cc:Work>
    </rdf:RDF>
  </metadata>
  <g
     inkscape:label="Layer 1"
     inkscape:groupmode="layer"
     id="layer1"
     transform="translate(-14.205185,-6.1162966)">
    <path
       inkscape:connector-curvature="0"
       id="path4828"
       style="font-style:normal;font-variant:normal;font-weight:500;font-stretch:normal;font-size:80px;line-height:125%;font-family:'Roboto Mono Medium for Powerline';-inkscape-font-specification:'Roboto Mono Medium for Powerline Medium';letter-spacing:0px;word-spacing:0px;writing-mode:lr-tb;fill:#963636;fill-opacity:1;stroke:none;stroke-width:1px;stroke-linecap:butt;stroke-linejoin:miter;stroke-opacity:1"
       d="m 23.221986,17.983875 q 0,-0.517882 -0.232271,-0.906294 -0.221712,-0.39837 -0.644022,-0.697149 -0.411752,-0.298778 -0.992427,-0.517882 -0.570119,-0.229063 -1.245814,-0.418289 -0.907966,-0.248982 -1.794816,-0.617475 -0.876293,-0.368493 -1.573104,-0.896335 -0.686253,-0.5378 -1.119121,-1.244908 -0.42231,-0.717068 -0.42231,-1.65324 0,-0.936171 0.42231,-1.6731574 0.432868,-0.7469455 1.150794,-1.2648277 0.717927,-0.5178822 1.668124,-0.7967418 0.950196,-0.2788596 1.984855,-0.2788596 1.108563,0 2.069318,0.3286561 0.971312,0.3186967 1.689239,0.9062937 0.728484,0.5776378 1.150793,1.3942981 0.42231,0.8067016 0.432868,1.7926686 l -2.533858,0 Q 23.179755,10.892874 22.979158,10.444706 22.789119,9.9865796 22.430155,9.6579238 22.08175,9.3292677 21.574978,9.1500008 21.068206,8.9707339 20.403069,8.9707339 q -0.570118,0 -1.055775,0.1394298 -0.485656,0.1394298 -0.844619,0.4083303 -0.348406,0.2689002 -0.549003,0.647353 -0.200597,0.378452 -0.200597,0.856497 0,0.507923 0.274501,0.886375 0.274502,0.368493 0.717927,0.647353 0.443425,0.27886 1.013543,0.488004 0.580676,0.199186 1.203583,0.368493 0.960755,0.268901 1.837047,0.667272 0.876293,0.388411 1.541431,0.94613 0.665137,0.547761 1.055774,1.274787 0.390636,0.727027 0.390636,1.663199 0,0.966049 -0.432867,1.703035 -0.432867,0.736987 -1.161352,1.23495 -0.728484,0.497965 -1.689239,0.756904 -0.960754,0.248982 -2.005971,0.248982 -0.707368,0 -1.404179,-0.12947 -0.696811,-0.12947 -1.340834,-0.388413 -0.633464,-0.258939 -1.182467,-0.637393 -0.549003,-0.38841 -0.960754,-0.886374 -0.401195,-0.507923 -0.633465,-1.125398 -0.23227,-0.627434 -0.242828,-1.374379 l 2.544416,0 q 0.05279,0.657311 0.306174,1.145316 0.253386,0.488004 0.675696,0.81666 0.42231,0.318697 0.98187,0.488004 0.570118,0.159349 1.256371,0.159349 0.570118,0 1.066332,-0.129471 0.496214,-0.12947 0.865735,-0.378452 0.369521,-0.258941 0.580676,-0.627434 0.211155,-0.378453 0.211155,-0.856498 z" />
    <path
       style="font-style:normal;font-variant:normal;font-weight:500;font-stretch:normal;font-size:80px;line-height:125%;font-family:'Roboto Mono Medium for Powerline';-inkscape-font-specification:'Roboto Mono Medium for Powerline Medium';letter-spacing:0px;word-spacing:0px;writing-mode:lr-tb;fill:#963636;fill-opacity:1;stroke:none;stroke-width:1px;stroke-linecap:butt;stroke-linejoin:miter;stroke-opacity:1"
       d="m 31.4596,6.7184329 a 0.25959049,0.26161346 0 0 0 -0.228701,0.138002 c -2.660216,0.1173427 -4.799714,2.2678162 -4.922724,4.9469621 a 0.25959049,0.26161346 0 0 0 -0.164586,0.243556 0.25959049,0.26161346 0 0 0 0.164586,0.243556 c 0.112302,2.448517 1.908975,4.454664 4.247961,4.871902 l 0,-0.264666 c -2.209797,-0.414962 -3.895905,-2.323043 -3.989158,-4.647893 a 0.25959049,0.26161346 0 0 0 0.09578,-0.202899 0.25959049,0.26161346 0 0 0 -0.09617,-0.202898 c 0.102688,-2.5590193 2.135384,-4.6131377 4.67213,-4.7264718 A 0.25959049,0.26161346 0 0 0 31.4596,7.2415114 0.25959049,0.26161346 0 0 0 31.680089,7.1175832 c 2.538936,0.1132337 4.572132,2.170686 4.671742,4.7327268 a 0.25959049,0.26161346 0 0 0 -0.08874,0.196643 0.25959049,0.26161346 0 0 0 0.08874,0.196644 c -0.09049,2.328552 -1.778222,4.240176 -3.991114,4.654539 l 0,0.264666 c 2.33905,-0.416191 4.135623,-2.421488 4.249134,-4.869556 a 0.25959049,0.26161346 0 0 0 0.172405,-0.246293 0.25959049,0.26161346 0 0 0 -0.172015,-0.245901 C 36.486135,9.1227341 34.347639,6.9729893 31.687908,6.856044 A 0.25959049,0.26161346 0 0 0 31.4596,6.7184329 Z"
       id="path5015"
       inkscape:connector-curvature="0" />
    <path
       style="font-style:normal;font-variant:normal;font-weight:500;font-stretch:normal;font-size:80px;line-height:125%;font-family:'Roboto Mono Medium for Powerline';-inkscape-font-specification:'Roboto Mono Medium for Powerline Medium';letter-spacing:0px;word-spacing:0px;writing-mode:lr-tb;fill:#963636;fill-opacity:1;stroke:none;stroke-width:1px;stroke-linecap:butt;stroke-linejoin:miter;stroke-opacity:1"
       d="m 32.360717,17.162802 c -0.223499,0.03977 -0.451732,0.06611 -0.684146,0.07584 A 0.25959049,0.26161346 0 0 1 31.4596,17.356709 0.25959049,0.26161346 0 0 1 31.242628,17.238644 c -0.233202,-0.0098 -0.462257,-0.03623 -0.686492,-0.07623 l 0,3.157627 -2.516093,0 0,1.398395 6.724177,0 0,-1.398395 -2.403503,0 0,-3.157236 z"
       id="path5013"
       inkscape:connector-curvature="0" />
    <path
       style="font-style:normal;font-variant:normal;font-weight:500;font-stretch:normal;font-size:80px;line-height:125%;font-family:'Roboto Mono Medium for Powerline';-inkscape-font-specification:'Roboto Mono Medium for Powerline Medium';letter-spacing:0px;word-spacing:0px;writing-mode:lr-tb;fill:#963636;fill-opacity:1;stroke:none;stroke-width:1px;stroke-linecap:butt;stroke-linejoin:miter;stroke-opacity:1"
       d="m 32.360717,16.898136 0,-1.029738 c -0.220362,0.05278 -0.447119,0.08889 -0.680235,0.102035 a 0.25959049,0.26161346 0 0 1 -0.220882,0.12471 0.25959049,0.26161346 0 0 1 -0.221273,-0.12471 c -0.233761,-0.01321 -0.461297,-0.04936 -0.682191,-0.102426 l 0,1.029738 c 0.219307,0.04118 0.44344,0.06826 0.672027,0.07897 a 0.25959049,0.26161346 0 0 1 0.231437,-0.143084 0.25959049,0.26161346 0 0 1 0.231436,0.143084 c 0.227712,-0.01067 0.451181,-0.03767 0.669681,-0.07858 z"
       id="path5011"
       inkscape:connector-curvature="0" />
    <path
       style="font-style:normal;font-variant:normal;font-weight:500;font-stretch:normal;font-size:80px;line-height:125%;font-family:'Roboto Mono Medium for Powerline';-inkscape-font-specification:'Roboto Mono Medium for Powerline Medium';letter-spacing:0px;word-spacing:0px;writing-mode:lr-tb;fill:#963636;fill-opacity:1;stroke:none;stroke-width:1px;stroke-linecap:butt;stroke-linejoin:miter;stroke-opacity:1"
       d="m 30.556136,15.868007 0,-0.270531 C 30.431654,15.56573 30.31076,15.525567 30.19178,15.481367 l -0.619642,0 c 0.305457,0.171374 0.635187,0.302853 0.983998,0.38664 z"
       id="path5009"
       inkscape:connector-curvature="0" />
    <path
       style="font-style:normal;font-variant:normal;font-weight:500;font-stretch:normal;font-size:80px;line-height:125%;font-family:'Roboto Mono Medium for Powerline';-inkscape-font-specification:'Roboto Mono Medium for Powerline Medium';letter-spacing:0px;word-spacing:0px;writing-mode:lr-tb;fill:#963636;fill-opacity:1;stroke:none;stroke-width:1px;stroke-linecap:butt;stroke-linejoin:miter;stroke-opacity:1"
       d="m 29.572138,15.481367 c -0.332967,-0.186811 -0.637599,-0.418983 -0.9019,-0.691965 a 0.25959049,0.26161346 0 0 1 -0.01681,7.8e-4 0.25959049,0.26161346 0 0 1 -0.259586,-0.26193 0.25959049,0.26161346 0 0 1 0.0051,-0.05199 c -0.09939,-0.126965 -0.189231,-0.261565 -0.272877,-0.400323 l -0.08601,0 0,1.405432 1.532095,0 z"
       id="path5007"
       inkscape:connector-curvature="0" />
    <path
       style="font-style:normal;font-variant:normal;font-weight:500;font-stretch:normal;font-size:80px;line-height:125%;font-family:'Roboto Mono Medium for Powerline';-inkscape-font-specification:'Roboto Mono Medium for Powerline Medium';letter-spacing:0px;word-spacing:0px;writing-mode:lr-tb;fill:#963636;fill-opacity:1;stroke:none;stroke-width:1px;stroke-linecap:butt;stroke-linejoin:miter;stroke-opacity:1"
       d="m 28.126048,14.075935 0.304544,0 c -0.343299,-0.519943 -0.557764,-1.132644 -0.599311,-1.794417 a 0.25959049,0.26161346 0 0 0 0.144256,-0.234565 0.25959049,0.26161346 0 0 0 -0.144256,-0.233782 c 0.04784,-0.765349 0.325898,-1.46601 0.768197,-2.0325003 a 0.25959049,0.26161346 0 0 0 0.05395,0.00626 0.25959049,0.26161346 0 0 0 0.259583,-0.2619302 0.25959049,0.26161346 0 0 0 -0.01446,-0.085616 c 0.60701,-0.605594 1.425495,-0.9931128 2.33391,-1.049676 A 0.25959049,0.26161346 0 0 0 31.4596,8.5249695 0.25959049,0.26161346 0 0 0 31.686735,8.389704 c 0.908514,0.05651 1.726848,0.4440294 2.333916,1.0496756 a 0.25959049,0.26161346 0 0 0 -0.01486,0.085616 0.25959049,0.26161346 0 0 0 0.259586,0.2619303 0.25959049,0.26161346 0 0 0 0.05473,-0.00626 c 0.44282,0.5671661 0.721242,1.2688221 0.768589,2.0352371 a 0.25959049,0.26161346 0 0 0 -0.138394,0.231046 0.25959049,0.26161346 0 0 0 0.138004,0.231046 c -0.04648,0.751536 -0.315507,1.439976 -0.743571,2.001224 a 0.25959049,0.26161346 0 0 0 -0.07936,-0.01251 0.25959049,0.26161346 0 0 0 -0.259585,0.261539 0.25959049,0.26161346 0 0 0 0.02698,0.114936 c -0.454421,0.457409 -1.029211,0.791214 -1.672054,0.954677 l 0,0.270531 c 0.730047,-0.174869 1.381355,-0.555051 1.888635,-1.078996 a 0.25959049,0.26161346 0 0 0 0.01603,7.8e-4 0.25959049,0.26161346 0 0 0 0.259583,-0.26193 0.25959049,0.26161346 0 0 0 -0.0051,-0.05121 c 0.482481,-0.615999 0.7882,-1.378693 0.833485,-2.212334 a 0.25959049,0.26161346 0 0 0 0.116134,-0.21775 0.25959049,0.26161346 0 0 0 -0.11611,-0.217754 C 35.30784,10.990965 34.99957,10.223663 34.512454,9.6059202 a 0.25959049,0.26161346 0 0 0 0.01251,-0.080925 0.25959049,0.26161346 0 0 0 -0.259584,-0.2615391 0.25959049,0.26161346 0 0 0 -0.04809,0.00509 C 33.559629,8.60556 32.668071,8.1784808 31.678917,8.1230825 A 0.25959049,0.26161346 0 0 0 31.4596,8.0018909 0.25959049,0.26161346 0 0 0 31.241063,8.1230825 c -0.989257,0.055214 -1.880584,0.4821464 -2.538377,1.145065 a 0.25959049,0.26161346 0 0 0 -0.04926,-0.00469 0.25959049,0.26161346 0 0 0 -0.259586,0.2615391 0.25959049,0.26161346 0 0 0 0.01329,0.081316 C 27.9192,10.225177 27.610452,10.99392 27.565825,11.833892 a 0.25959049,0.26161346 0 0 0 -0.109463,0.213063 0.25959049,0.26161346 0 0 0 0.109463,0.213453 c 0.0353,0.663118 0.237431,1.280059 0.560218,1.815529 z"
       id="path5005"
       inkscape:connector-curvature="0" />
    <path
       style="font-style:normal;font-variant:normal;font-weight:500;font-stretch:normal;font-size:80px;line-height:125%;font-family:'Roboto Mono Medium for Powerline';-inkscape-font-specification:'Roboto Mono Medium for Powerline Medium';letter-spacing:0px;word-spacing:0px;writing-mode:lr-tb;fill:#963636;fill-opacity:1;stroke:none;stroke-width:1px;stroke-linecap:butt;stroke-linejoin:miter;stroke-opacity:1"
       d="m 32.360717,15.597867 0,-1.050458 c -0.217846,0.07974 -0.448352,0.133095 -0.688446,0.152467 A 0.25959049,0.26161346 0 0 1 31.4596,14.811685 0.25959049,0.26161346 0 0 1 31.246928,14.699876 c -0.5673,-0.04584 -1.083202,-0.274019 -1.493393,-0.623941 l -1.322943,0 c 0.04592,0.06955 0.09382,0.137564 0.144257,0.20368 a 0.25959049,0.26161346 0 0 1 0.07858,-0.0129 0.25959049,0.26161346 0 0 1 0.259584,0.26154 0.25959049,0.26161346 0 0 1 -0.02658,0.114936 c 0.365828,0.368236 0.810775,0.654451 1.305353,0.838177 l 0.364356,0 0,0.116109 c 0.218901,0.05582 0.445607,0.09197 0.678281,0.106336 a 0.25959049,0.26161346 0 0 1 0.225182,-0.131748 0.25959049,0.26161346 0 0 1 0.225182,0.131748 c 0.231883,-0.0143 0.457745,-0.05046 0.675936,-0.105945 z"
       id="path5003"
       inkscape:connector-curvature="0" />
    <path
       style="font-style:normal;font-variant:normal;font-weight:500;font-stretch:normal;font-size:80px;line-height:125%;font-family:'Roboto Mono Medium for Powerline';-inkscape-font-specification:'Roboto Mono Medium for Powerline Medium';letter-spacing:0px;word-spacing:0px;writing-mode:lr-tb;fill:#963636;fill-opacity:1;stroke:none;stroke-width:1px;stroke-linecap:butt;stroke-linejoin:miter;stroke-opacity:1"
       d="m 29.753535,14.075935 0.429644,0 c -0.665843,-0.425551 -1.107536,-1.174297 -1.107536,-2.028982 0,-1.25184 0.94692,-2.2773449 2.159165,-2.3913833 a 0.25959049,0.26161346 0 0 0 0.224792,0.131356 0.25959049,0.26161346 0 0 0 0.224399,-0.131356 c 1.212431,0.1138571 2.159557,1.1394113 2.159557,2.3913833 0,1.006698 -0.61259,1.86609 -1.482839,2.223671 l 0,0.276785 c 1.015178,-0.37157 1.742423,-1.349938 1.742423,-2.500456 0,-1.393421 -1.065714,-2.5376862 -2.419141,-2.6529227 A 0.25959049,0.26161346 0 0 0 31.4596,9.2634563 0.25959049,0.26161346 0 0 0 31.2352,9.3940303 c -1.353272,0.1153904 -2.419141,1.2596117 -2.419141,2.6529227 0,0.813926 0.365179,1.540773 0.937476,2.028982 z"
       id="path5001"
       inkscape:connector-curvature="0" />
    <path
       style="font-style:normal;font-variant:normal;font-weight:500;font-stretch:normal;font-size:80px;line-height:125%;font-family:'Roboto Mono Medium for Powerline';-inkscape-font-specification:'Roboto Mono Medium for Powerline Medium';letter-spacing:0px;word-spacing:0px;writing-mode:lr-tb;fill:#963636;fill-opacity:1;stroke:none;stroke-width:1px;stroke-linecap:butt;stroke-linejoin:miter;stroke-opacity:1"
       d="m 32.360717,14.270624 0,-0.194689 -2.177538,0 c 0.306912,0.196153 0.661178,0.323876 1.042247,0.36123 a 0.25959049,0.26161346 0 0 1 0.234174,-0.148558 0.25959049,0.26161346 0 0 1 0.234173,0.148558 c 0.234028,-0.02294 0.457793,-0.0806 0.666944,-0.166541 z"
       id="path4999"
       inkscape:connector-curvature="0" />
    <path
       style="font-style:normal;font-variant:normal;font-weight:500;font-stretch:normal;font-size:80px;line-height:125%;font-family:'Roboto Mono Medium for Powerline';-inkscape-font-specification:'Roboto Mono Medium for Powerline Medium';letter-spacing:0px;word-spacing:0px;writing-mode:lr-tb;fill:#963636;fill-opacity:1;stroke:none;stroke-width:1px;stroke-linecap:butt;stroke-linejoin:miter;stroke-opacity:1"
       d="m 111.44531,37.626953 c -1.57823,0 -2.80364,0.480352 -3.67773,1.441406 -0.8741,0.935083 -1.31055,2.129411 -1.31055,3.583985 0,1.45457 0.43645,2.663945 1.31055,3.625 0.87409,0.935086 2.0995,1.40039 3.67773,1.40039 1.60252,0 2.8427,-0.465304 3.7168,-1.40039 0.89838,-0.961055 1.34766,-2.17043 1.34766,-3.625 0,-1.454574 -0.44928,-2.648902 -1.34766,-3.583985 -0.8741,-0.961054 -2.11428,-1.441406 -3.7168,-1.441406 z m -3.66015,2.03125 1.95898,0 c -0.0509,0.05094 -0.0762,0.117822 -0.0762,0.201172 0,0.04167 0.0252,0.08651 0.0762,0.132813 l 0,0.660156 -0.77148,0 0,-0.222656 c -0.0278,-0.01852 -0.065,-0.02611 -0.11133,-0.02148 0.0185,-0.02315 0.0293,-0.04839 0.0293,-0.07617 0,-0.04631 -0.0208,-0.08796 -0.0625,-0.125 -0.037,-0.03704 -0.0787,-0.05469 -0.125,-0.05469 -0.0417,0 -0.0897,0.02842 -0.14062,0.08398 -0.0509,0.05557 -0.10141,0.08203 -0.15234,0.08203 l -0.72266,0 c -0.1667,0 -0.25,-0.0953 -0.25,-0.285156 0,-0.08798 0.036,-0.171281 0.10547,-0.25 0.0741,-0.08335 0.15421,-0.125 0.24219,-0.125 z m 4.69922,0.02148 c 0.13891,0 0.24304,0.05365 0.3125,0.160156 -0.1204,0.01389 -0.33306,0.01953 -0.63868,0.01953 0.0139,-0.0463 0.0587,-0.08796 0.13282,-0.125 0.0787,-0.03704 0.14242,-0.05469 0.19336,-0.05469 z m -0.38868,0.242187 0.77149,0 c 0,0.02315 -0.003,0.114046 -0.008,0.271484 l -0.76368,0 0,-0.271484 z m -0.0137,0.341797 0.79297,0 0,0.09766 -0.79297,0 0,-0.09766 z m -4.40039,0.117187 0.82617,0.02148 -0.82617,-0.02148 z m 7.16602,0.03516 c -0.0324,0 0.0193,0.0088 0.1582,0.02734 l 0.0762,0.08398 -0.6582,-0.0078 c 0.0185,-0.02315 0.0482,-0.0528 0.0898,-0.08984 0.0833,-0.0093 0.19507,-0.01367 0.33399,-0.01367 z m -2.76563,0.02148 0.79297,0 0,0.08984 -0.79297,0 0,-0.08984 z m 3.03516,0.152344 0.0137,0.04102 c 0.005,0.02778 0.008,0.04861 0.008,0.0625 l -0.77148,0 c 0,-0.0093 0.003,-0.02249 0.008,-0.04102 0.009,-0.02315 0.0137,-0.03957 0.0137,-0.04883 0.32414,0 0.56645,-0.0044 0.72852,-0.01367 z m -3.03516,0.01367 0.79297,0 0,0.08984 -0.79297,0 0,-0.08984 z m -3.10937,0.117187 0.76367,0 0,0.09766 -0.74219,0 -0.0215,-0.09766 z m 3.10937,0.04883 0.79297,0 0,0.0918 -0.79297,0 0,-0.0918 z m 2.28516,0 0.77148,0 0,0.0918 -0.77148,0 0,-0.0918 z m -5.39453,0.125 0.76367,0 0,0.07617 -0.76367,0 0,-0.07617 z m 3.10937,0.04297 0.79297,0 0,0.08984 -0.79297,0 0,-0.08984 z m 2.28516,0 0.77148,0 0,0.08984 -0.77148,0 0,-0.08984 z m -5.39453,0.125 0.76367,0 0,0.08203 -0.76367,0 0,-0.08203 z m 5.39453,0.04102 0.77148,0 0,0.214843 c -0.0834,-0.08335 -0.14141,-0.125 -0.17383,-0.125 l -0.59765,0 0,-0.08984 z m -2.28516,0.0078 0.79297,0 0,0.07617 -0.79297,0 0,-0.07617 z m -3.10937,0.117188 0.76367,0 0,0.08398 -0.76367,0 0,-0.08398 z m 3.11718,0.04102 0.78516,0 0,0.820313 c -0.005,0 -0.0166,-0.0032 -0.0352,-0.0078 -0.0185,-0.0046 -0.0349,-0.0059 -0.0488,-0.0059 -0.0787,0 -0.31221,0.178604 -0.70118,0.535156 l 0,-1.341797 z m 2.28516,0 0.56836,0 c 0.037,-0.0046 0.1027,0.04461 0.19531,0.146485 l 0,0.666015 -0.76367,0 0,-0.263672 c 0.0185,0.03704 0.057,0.05664 0.11719,0.05664 0.11113,0 0.16797,-0.05684 0.16797,-0.167969 0,-0.09724 -0.048,-0.144531 -0.14063,-0.144531 -0.0834,0 -0.13064,0.04729 -0.14453,0.144531 l 0,-0.4375 z m -5.40234,0.125 0.76367,0 0,0.08398 -0.76367,0 0,-0.08398 z m 0,0.160157 0.76367,0 0,0.08984 -0.76367,0 0,-0.08984 z m 0,0.167968 0.76367,0 0,0.826172 c -0.20838,-0.0046 -0.46269,-0.0046 -0.76367,0 l 0,-0.826172 z m 3.81836,0.666016 0.084,0 0,0.291016 -0.043,0.04297 c -0.0232,0.02778 -0.0352,0.06502 -0.0352,0.111328 0,0.04631 0.0196,0.08796 0.0566,0.125 0.037,0.03704 0.0787,0.05469 0.125,0.05469 0.0139,0 0.0271,-0.0044 0.041,-0.01367 0.0185,-0.01389 0.0349,-0.02148 0.0488,-0.02148 0.0139,0 0.0391,0.02083 0.0762,0.0625 0.037,0.03704 0.061,0.05787 0.0703,0.0625 0.009,0.0046 0.0521,0.0078 0.13086,0.0078 0.0648,0 0.10966,-0.0044 0.13282,-0.01367 0.0463,-0.01852 0.10437,-0.07095 0.17382,-0.154297 l 0.21485,0 c -0.0232,0.05094 -0.0352,0.09895 -0.0352,0.140625 0,0.115764 0.0568,0.171875 0.16797,0.171875 0.0509,0 0.0938,-0.02083 0.13086,-0.0625 0.037,-0.04631 0.0566,-0.0936 0.0566,-0.144531 0,-0.02778 -0.008,-0.05302 -0.0215,-0.07617 0.0185,-0.01852 0.28483,-0.0293 0.79882,-0.0293 0.0417,0.0093 0.14139,0.09133 0.29883,0.244141 0.16207,0.152808 0.24219,0.240519 0.24219,0.263672 -0.005,0.0046 -0.0179,0.03746 -0.041,0.09766 -0.3334,-0.328769 -0.53724,-0.494141 -0.61132,-0.49414 -0.11577,0 -0.17383,0.06125 -0.17383,0.18164 0,0.125025 0.0568,0.1875 0.16797,0.1875 0.0602,0 0.12267,-0.04924 0.1875,-0.146484 0.037,-0.0046 0.16322,0.102677 0.38086,0.320312 l -0.0625,0.0625 c -0.0463,-0.04167 -0.10879,-0.08333 -0.1875,-0.125 l -1.22266,0 c -0.0185,-0.08798 -0.0362,-0.146045 -0.0547,-0.173828 -0.0185,-0.03241 -0.0633,-0.04883 -0.13281,-0.04883 -0.12039,0 -0.17969,0.05929 -0.17969,0.179688 0,0.125024 0.0581,0.1875 0.17383,0.1875 0.0185,0 0.0438,-0.01005 0.0762,-0.0332 0.037,-0.02778 0.0623,-0.04297 0.0762,-0.04297 l 1.27149,0 c 0.0232,0.03241 0.054,0.06524 0.0957,0.09766 l -1.76367,0 c -0.0139,-0.101872 -0.072,-0.152344 -0.17383,-0.152344 -0.0972,0 -0.15972,0.05488 -0.1875,0.166016 l -0.95117,0 0,-0.75 c 0.25468,-0.25468 0.45411,-0.446517 0.59766,-0.576172 z m 1.57617,0.0078 0.77148,0 0,0.138672 -0.77148,0 0,-0.138672 z m 0,0.201172 0.77148,0 0,0.111328 -0.77148,0 0,-0.111328 z m 0,0.179688 0.73047,0 c 0.037,0.03241 0.0503,0.08288 0.041,0.152344 0.0324,0 0.0817,0.01519 0.14649,0.04297 0.16207,0.120394 0.24218,0.209334 0.24218,0.269532 l 0,0.105468 c -0.1528,-0.129655 -0.32259,-0.290616 -0.50781,-0.480468 l -0.65234,0 0,-0.08984 z m -5.39453,0.07031 0.76367,0 0,0.158203 -0.76367,0 0,-0.158203 z m 1.79882,0.08984 c 0.0278,0 0.19316,0.154597 0.49414,0.464844 l 0,0.138672 c -0.13891,-0.138917 -0.34152,-0.326343 -0.60546,-0.5625 0.0648,-0.02778 0.10206,-0.04102 0.11132,-0.04102 z m 2.38086,0.0059 0.40235,0 c -0.037,0.0602 -0.10393,0.0918 -0.20117,0.0918 -0.0926,0 -0.1595,-0.0316 -0.20118,-0.0918 z m -2.5332,0.105469 c 0.037,0 0.14999,0.0953 0.33984,0.285156 0.10188,0.101872 0.20477,0.205998 0.30664,0.3125 l 0,0.138672 c -0.14817,-0.143547 -0.36525,-0.350569 -0.65234,-0.61914 -0.0185,-0.0093 -0.0457,-0.01367 -0.0781,-0.01367 0.0278,-0.06946 0.0562,-0.103516 0.084,-0.103516 z m -1.53516,0.01953 0.65235,0 0,0.08398 -0.20703,-0.01367 c -0.088,-0.0046 -0.15487,0.0042 -0.20118,0.02734 -0.0463,0.02315 -0.10436,0.0724 -0.17382,0.146484 -0.088,0.09724 -0.14923,0.155306 -0.18164,0.173828 -0.005,-0.04631 0.015,-0.101188 0.0566,-0.166016 0.0417,-0.06946 0.0625,-0.127522 0.0625,-0.173828 0,-0.02315 -0.003,-0.05034 -0.008,-0.07813 z m 0.24414,0.167969 0.40821,0 0,0.08398 c -0.0833,0.0093 -0.16347,0.0149 -0.24219,0.01953 -0.1065,0.01852 -0.16016,0.08418 -0.16016,0.195312 0,0.115764 0.0568,0.173828 0.16797,0.173828 0.11114,0 0.17043,-0.05242 0.17969,-0.154296 -0.005,-0.03241 -0.008,-0.07529 -0.008,-0.13086 0.0185,-0.01389 0.0349,-0.02148 0.0488,-0.02148 l 0,0.583984 -0.26954,0 c -0.0278,-0.148177 -0.0902,-0.222656 -0.1875,-0.222656 -0.12502,0 -0.1875,0.06247 -0.1875,0.1875 0,0.120394 0.0593,0.18164 0.17969,0.18164 0.0139,0 0.0379,-0.012 0.0703,-0.03516 0.0371,-0.02315 0.0623,-0.03516 0.0762,-0.03516 l 0.33203,0 0,0.08984 c -0.0602,-0.0046 -0.12831,-0.0014 -0.20703,0.0078 -0.0278,0.02315 -0.0694,0.04962 -0.125,0.08203 l -0.17383,0 c -0.0741,0 -0.13534,-0.0012 -0.18164,-0.0059 -0.0556,-0.06946 -0.082,-0.124341 -0.082,-0.166016 l 0,-0.5 c 0.0417,-0.02778 0.16221,-0.139501 0.36132,-0.333984 z m 1.17383,0 0.10352,0 0.66601,0.646484 0,0.103516 -0.0684,0 -0.70117,-0.666016 0,-0.08398 z m 0,0.160156 c 0.15744,0.152808 0.38775,0.37111 0.69336,0.658204 0.0139,0.0046 0.0391,0.0078 0.0762,0.0078 l 0,0.08984 -0.13867,0 c -0.14354,-0.138917 -0.35302,-0.330753 -0.63086,-0.576172 l 0,-0.179688 z m 0.041,0.332032 c 0.0556,0.01852 0.1641,0.112597 0.32617,0.279296 0.14818,0.152808 0.26431,0.228516 0.34766,0.228516 0.0185,0 0.0362,-0.0032 0.0547,-0.0078 l 0,0.08398 c -0.037,0.01852 -0.10074,0.02734 -0.19336,0.02734 -0.005,0 -0.0671,-0.05365 -0.1875,-0.160156 -0.12039,-0.111134 -0.19487,-0.173609 -0.22265,-0.1875 -0.0185,0 -0.0734,-0.0012 -0.16602,-0.0059 l 0,-0.173828 c 0,-0.02778 0.0132,-0.0562 0.041,-0.08398 z m 3.82422,0.04297 0.71484,0 c 0.0139,0.0093 0.0335,0.02249 0.0566,0.04102 l 0,0.103516 c -0.0278,-0.02315 -0.0574,-0.0332 -0.0898,-0.0332 -0.1204,0 -0.18164,0.06689 -0.18164,0.201172 0,0.111133 0.0537,0.166016 0.16015,0.166016 0.0509,0 0.0882,-0.0044 0.11133,-0.01367 l 0,0.138672 c -0.0139,0.0046 -0.0555,0.0078 -0.125,0.0078 -0.0463,0 -0.15484,-0.0833 -0.32617,-0.25 -0.1667,-0.17133 -0.27401,-0.262223 -0.32031,-0.271484 l 0,-0.08984 z m 0,0.166016 c 0.0741,0.0463 0.16939,0.129606 0.28515,0.25 0.11577,0.120394 0.20348,0.202466 0.26368,0.244141 0.0139,0.01389 0.0884,0.02271 0.22265,0.02734 l 0,0.08203 -0.125,0 c -0.0232,0 -0.0484,0.0032 -0.0762,0.0078 l -0.0352,0 c -0.10187,0 -0.16116,-0.0044 -0.17968,-0.01367 -0.0371,-0.01852 -0.10589,-0.07977 -0.20313,-0.18164 0.009,-0.02778 0.0156,-0.05425 0.0156,-0.08203 0,-0.134285 -0.0568,-0.204353 -0.16797,-0.208984 l 0,-0.125 z m -3.86524,0.125 0.17383,0 c 0.0833,0.08798 0.20071,0.196517 0.35352,0.326172 0.0556,0 0.13568,0.0032 0.24218,0.0078 l 0,0.103516 -0.24218,0 c -0.0463,0 -0.17885,-0.108536 -0.39649,-0.326172 -0.0232,-0.01389 -0.066,-0.02148 -0.13086,-0.02148 l 0,-0.08984 z m -0.96679,0.166016 0.20117,0 0,0.0918 c -0.0833,-0.01852 -0.16788,0.01995 -0.25586,0.117188 -0.088,0.09261 -0.15487,0.138672 -0.20117,0.138672 -0.0371,0 -0.0819,-0.02524 -0.13282,-0.07617 -0.0509,-0.05094 -0.109,-0.07617 -0.17382,-0.07617 l 0,-0.103516 c 0.19448,0.0046 0.33903,0.0014 0.43164,-0.0078 0.009,0 0.0301,-0.01323 0.0625,-0.04102 0.0324,-0.02778 0.0545,-0.04297 0.0684,-0.04297 z m 0.96679,0 0.0762,0 c 0.005,0 0.0595,0.05242 0.16602,0.154296 0.1065,0.101872 0.17657,0.159937 0.20898,0.173829 0.0695,0 0.17482,0.0012 0.31836,0.0059 l 0,0.08398 c -0.088,0.0093 -0.17569,0.01367 -0.26367,0.01367 -0.0926,0 -0.18791,-0.0044 -0.28515,-0.01367 0,-0.115763 -0.006,-0.190242 -0.0195,-0.222656 -0.0278,-0.05557 -0.0947,-0.08521 -0.20117,-0.08984 l 0,-0.105468 z m -0.875,0.167968 0.10938,0 c 0.005,0.03704 -10e-4,0.09193 -0.0195,0.166016 -0.0185,0.07409 -0.0274,0.12456 -0.0274,0.152344 0,0.115763 0.0593,0.173828 0.17969,0.173828 0.0139,0 0.0259,-0.0012 0.0352,-0.0059 0.009,-0.0093 0.0213,-0.01367 0.0351,-0.01367 0.0463,0 0.13084,0.06811 0.25586,0.207031 l 1.07617,0 0,0.25 c 0,0.0602 -0.0416,0.125854 -0.125,0.195312 -0.0833,0.06946 -0.15587,0.103516 -0.2207,0.103516 -0.0139,0 -0.0455,-0.01764 -0.0918,-0.05469 -0.0463,-0.03704 -0.0772,-0.05664 -0.0957,-0.05664 -0.009,0 -0.0289,0.0076 -0.0566,0.02148 -0.0278,0.0046 -0.0486,0.0046 -0.0625,0 -0.009,0.0093 -0.0137,0.03891 -0.0137,0.08984 l -0.5625,0 c -0.0509,-0.0602 -0.109,-0.08984 -0.17383,-0.08984 -0.0926,0 -0.14185,0.02965 -0.14648,0.08984 l -0.15821,0 0,-0.06836 c 0.0926,-0.06483 0.13868,-0.130485 0.13867,-0.195313 0,-0.115763 -0.0581,-0.173828 -0.17382,-0.173828 -0.11577,0 -0.17383,0.06247 -0.17383,0.1875 0,0.06946 0.0176,0.11429 0.0547,0.132812 0.037,0.01852 0.061,0.03935 0.0703,0.0625 0.0139,0.02315 0.0215,0.0408 0.0215,0.05469 l -0.23633,0 c 0,-0.0046 0.001,-0.01663 0.006,-0.03516 0.005,-0.01852 0.008,-0.03298 0.008,-0.04687 0,-0.115764 -0.0613,-0.173828 -0.18164,-0.173828 -0.1204,0 -0.17528,0.08453 -0.16602,0.255859 l -0.23633,0 c 0.009,-0.0463 -0.004,-0.08796 -0.041,-0.125 -0.0371,-0.03704 -0.0787,-0.05469 -0.125,-0.05469 -0.0417,0 -0.0833,0.02083 -0.125,0.0625 -0.0417,0.04167 -0.0701,0.06691 -0.084,0.07617 -0.0556,0.02778 -0.094,0.04102 -0.11719,0.04102 l -0.15429,0 c 0.11576,-0.17133 0.20347,-0.255859 0.26367,-0.255859 0.009,0 0.0213,0.0044 0.0352,0.01367 0.0185,0.0046 0.0349,0.0059 0.0488,0.0059 0.13429,0 0.20118,-0.0637 0.20118,-0.19336 0,-0.115763 -0.0549,-0.173828 -0.16602,-0.173828 -0.11576,0 -0.17824,0.05806 -0.1875,0.173828 0.005,0.03241 0.005,0.07529 0,0.13086 -0.0232,0.03704 -0.0724,0.09829 -0.14648,0.18164 -0.0741,0.07872 -0.12456,0.117188 -0.15235,0.117188 l -0.22265,0 0,-0.75 1.23046,0 c 0.0139,-0.01389 0.0195,-0.03913 0.0195,-0.07617 0.0417,0.0046 0.11615,-0.03702 0.22265,-0.125 0.0463,0 0.10755,-0.01323 0.18164,-0.04102 0.0185,-0.01852 0.0602,-0.06335 0.125,-0.132812 0.0648,-0.06946 0.10648,-0.103516 0.125,-0.103516 z m 4.82422,0 c 0.0417,0.05557 0.11174,0.122453 0.20899,0.201172 0.037,0.01852 0.19605,0.02734 0.47851,0.02734 l 0,0.445312 c 0,0.01389 -0.009,0.03472 -0.0273,0.0625 -0.0139,0.02315 -0.0215,0.03957 -0.0215,0.04883 -0.005,0.02778 0.004,0.107901 0.0273,0.242187 -0.0139,0.04167 -0.0555,0.09092 -0.125,0.146484 -0.0648,0.05557 -0.11848,0.0808 -0.16016,0.07617 l -0.10937,0 c 0.0185,-0.106502 -0.0396,-0.160156 -0.17383,-0.160156 -0.0463,0 -0.0791,0.0044 -0.0977,0.01367 l -0.0488,-0.04102 0.0898,-0.105468 c 0.0278,-0.03241 0.043,-0.07088 0.043,-0.117188 0,-0.115763 -0.0372,-0.170646 -0.11133,-0.166016 -0.0185,0 -0.0381,0.0012 -0.0566,0.0059 l 0,-0.638672 c 0.0232,-0.0046 0.0516,-0.01786 0.084,-0.04102 z m -3.82422,0.291016 c 0.0139,0 0.0359,0.0088 0.0684,0.02734 0.0324,0.01852 0.0564,0.0293 0.0703,0.0293 l 0.50586,0 0,0.08203 -0.76953,0 0,-0.117188 c 0.0139,0 0.0347,-0.0032 0.0625,-0.0078 0.0278,-0.0093 0.0486,-0.01367 0.0625,-0.01367 z m -0.53515,0.1875 0.30468,0 c 0.0139,0 0.0247,0.0076 0.0293,0.02148 0.005,0.0093 0.0134,0.01367 0.0273,0.01367 l 0.81836,0 0,0.08984 -0.86132,0 c -0.16207,0 -0.26743,-0.04165 -0.31836,-0.125 z m 4.27539,0.285156 c 0.0185,-0.0046 0.0469,0.0042 0.084,0.02734 0.0417,0.02315 0.0625,0.04716 0.0625,0.07031 0,0.04167 -0.0284,0.07255 -0.084,0.0957 l -0.0625,0 0,-0.19336 z"
       transform="scale(0.28222222,0.28222222)"
       id="path4997"
       inkscape:connector-curvature="0" />
    <path
       style="font-style:normal;font-variant:normal;font-weight:500;font-stretch:normal;font-size:80px;line-height:125%;font-family:'Roboto Mono Medium for Powerline';-inkscape-font-specification:'Roboto Mono Medium for Powerline Medium';letter-spacing:0px;word-spacing:0px;writing-mode:lr-tb;fill:#963636;fill-opacity:1;stroke:none;stroke-width:1px;stroke-linecap:butt;stroke-linejoin:miter;stroke-opacity:1"
       d="m 33.0476,20.356787 0.42339,0 c -0.01101,0.01101 -0.01642,0.02577 -0.01642,0.04379 0,0.009 0.0054,0.01853 0.01642,0.02854 l 0,0.142303 -0.166541,0 0,-0.0477 c -0.006,-0.004 -0.01384,-0.0057 -0.02385,-0.0047 0.004,-0.005 0.0059,-0.01042 0.0059,-0.01642 0,-0.01001 -0.0047,-0.01897 -0.01368,-0.02697 -0.008,-0.008 -0.01696,-0.01212 -0.02697,-0.01212 -0.009,0 -0.01909,0.006 -0.0301,0.01799 -0.01101,0.01201 -0.02183,0.01799 -0.03284,0.01799 l -0.155984,0 c -0.03603,0 -0.05434,-0.02034 -0.05434,-0.06138 0,-0.01901 0.0077,-0.03733 0.02267,-0.05434 0.01601,-0.01801 0.03337,-0.02697 0.05238,-0.02697 z"
       id="path4995"
       inkscape:connector-curvature="0" />
    <path
       style="font-style:normal;font-variant:normal;font-weight:500;font-stretch:normal;font-size:80px;line-height:125%;font-family:'Roboto Mono Medium for Powerline';-inkscape-font-specification:'Roboto Mono Medium for Powerline Medium';letter-spacing:0px;word-spacing:0px;writing-mode:lr-tb;fill:#963636;fill-opacity:1;stroke:none;stroke-width:1px;stroke-linecap:butt;stroke-linejoin:miter;stroke-opacity:1"
       d="m 34.063654,20.361478 c 0.03003,0 0.05223,0.01138 0.06724,0.0344 -0.02602,0.003 -0.07195,0.0047 -0.138001,0.0047 0.003,-0.01001 0.01253,-0.01896 0.02854,-0.02697 0.01701,-0.008 0.03121,-0.01212 0.04222,-0.01212 z"
       id="path4993"
       inkscape:connector-curvature="0" />
    <path
       style="font-style:normal;font-variant:normal;font-weight:500;font-stretch:normal;font-size:80px;line-height:125%;font-family:'Roboto Mono Medium for Powerline';-inkscape-font-specification:'Roboto Mono Medium for Powerline Medium';letter-spacing:0px;word-spacing:0px;writing-mode:lr-tb;fill:#963636;fill-opacity:1;stroke:none;stroke-width:1px;stroke-linecap:butt;stroke-linejoin:miter;stroke-opacity:1"
       d="m 33.979602,20.413864 0.166541,0 c 0,0.005 -5.63e-4,0.02461 -0.0016,0.05864 l -0.164977,0 0,-0.05864 z"
       id="path4991"
       inkscape:connector-curvature="0" />
    <path
       style="font-style:normal;font-variant:normal;font-weight:500;font-stretch:normal;font-size:80px;line-height:125%;font-family:'Roboto Mono Medium for Powerline';-inkscape-font-specification:'Roboto Mono Medium for Powerline Medium';letter-spacing:0px;word-spacing:0px;writing-mode:lr-tb;fill:#963636;fill-opacity:1;stroke:none;stroke-width:1px;stroke-linecap:butt;stroke-linejoin:miter;stroke-opacity:1"
       d="m 33.976476,20.487361 0.171232,0 0,0.02111 -0.171232,0 0,-0.02111 z"
       id="path4989"
       inkscape:connector-curvature="0" />
    <path
       style="font-style:normal;font-variant:normal;font-weight:500;font-stretch:normal;font-size:80px;line-height:125%;font-family:'Roboto Mono Medium for Powerline';-inkscape-font-specification:'Roboto Mono Medium for Powerline Medium';letter-spacing:0px;word-spacing:0px;writing-mode:lr-tb;fill:#963636;fill-opacity:1;stroke:none;stroke-width:1px;stroke-linecap:butt;stroke-linejoin:miter;stroke-opacity:1"
       d="m 33.025315,20.513163 0.178661,0.0043 -0.178661,-0.0043 z"
       id="path4987"
       inkscape:connector-curvature="0" />
    <path
       style="font-style:normal;font-variant:normal;font-weight:500;font-stretch:normal;font-size:80px;line-height:125%;font-family:'Roboto Mono Medium for Powerline';-inkscape-font-specification:'Roboto Mono Medium for Powerline Medium';letter-spacing:0px;word-spacing:0px;writing-mode:lr-tb;fill:#963636;fill-opacity:1;stroke:none;stroke-width:1px;stroke-linecap:butt;stroke-linejoin:miter;stroke-opacity:1"
       d="m 34.573831,20.520591 c -0.007,0 0.0048,0.0018 0.0348,0.0059 l 0.01642,0.01799 -0.142693,-0.0016 c 0.004,-0.005 0.01054,-0.01115 0.01955,-0.01916 0.01802,-0.002 0.04191,-0.0031 0.07193,-0.0031 z"
       id="path4985"
       inkscape:connector-curvature="0" />
    <path
       style="font-style:normal;font-variant:normal;font-weight:500;font-stretch:normal;font-size:80px;line-height:125%;font-family:'Roboto Mono Medium for Powerline';-inkscape-font-specification:'Roboto Mono Medium for Powerline Medium';letter-spacing:0px;word-spacing:0px;writing-mode:lr-tb;fill:#963636;fill-opacity:1;stroke:none;stroke-width:1px;stroke-linecap:butt;stroke-linejoin:miter;stroke-opacity:1"
       d="m 33.976476,20.524891 0.171232,0 0,0.01955 -0.171232,0 0,-0.01955 z"
       id="path4983"
       inkscape:connector-curvature="0" />
    <path
       style="font-style:normal;font-variant:normal;font-weight:500;font-stretch:normal;font-size:80px;line-height:125%;font-family:'Roboto Mono Medium for Powerline';-inkscape-font-specification:'Roboto Mono Medium for Powerline Medium';letter-spacing:0px;word-spacing:0px;writing-mode:lr-tb;fill:#963636;fill-opacity:1;stroke:none;stroke-width:1px;stroke-linecap:butt;stroke-linejoin:miter;stroke-opacity:1"
       d="m 34.632473,20.558121 0.0031,0.009 c 9.93e-4,0.006 0.0016,0.01029 0.0016,0.01329 l -0.16693,0 c 0,-0.002 5.62e-4,-0.005 0.0016,-0.009 0.002,-0.005 0.0031,-0.0082 0.0031,-0.01016 0.07006,0 0.12252,-0.0011 0.157549,-0.0031 z"
       id="path4981"
       inkscape:connector-curvature="0" />
    <path
       style="font-style:normal;font-variant:normal;font-weight:500;font-stretch:normal;font-size:80px;line-height:125%;font-family:'Roboto Mono Medium for Powerline';-inkscape-font-specification:'Roboto Mono Medium for Powerline Medium';letter-spacing:0px;word-spacing:0px;writing-mode:lr-tb;fill:#963636;fill-opacity:1;stroke:none;stroke-width:1px;stroke-linecap:butt;stroke-linejoin:miter;stroke-opacity:1"
       d="m 33.976476,20.561249 0.171232,0 0,0.01916 -0.171232,0 0,-0.01916 z"
       id="path4979"
       inkscape:connector-curvature="0" />
    <path
       style="font-style:normal;font-variant:normal;font-weight:500;font-stretch:normal;font-size:80px;line-height:125%;font-family:'Roboto Mono Medium for Powerline';-inkscape-font-specification:'Roboto Mono Medium for Powerline Medium';letter-spacing:0px;word-spacing:0px;writing-mode:lr-tb;fill:#963636;fill-opacity:1;stroke:none;stroke-width:1px;stroke-linecap:butt;stroke-linejoin:miter;stroke-opacity:1"
       d="m 33.304449,20.58666 0.164977,0 0,0.02111 -0.160287,0 -0.0047,-0.02111 z"
       id="path4977"
       inkscape:connector-curvature="0" />
    <path
       style="font-style:normal;font-variant:normal;font-weight:500;font-stretch:normal;font-size:80px;line-height:125%;font-family:'Roboto Mono Medium for Powerline';-inkscape-font-specification:'Roboto Mono Medium for Powerline Medium';letter-spacing:0px;word-spacing:0px;writing-mode:lr-tb;fill:#963636;fill-opacity:1;stroke:none;stroke-width:1px;stroke-linecap:butt;stroke-linejoin:miter;stroke-opacity:1"
       d="m 33.976476,20.597216 0.171232,0 0,0.01955 -0.171232,0 0,-0.01955 z"
       id="path4975"
       inkscape:connector-curvature="0" />
    <path
       style="font-style:normal;font-variant:normal;font-weight:500;font-stretch:normal;font-size:80px;line-height:125%;font-family:'Roboto Mono Medium for Powerline';-inkscape-font-specification:'Roboto Mono Medium for Powerline Medium';letter-spacing:0px;word-spacing:0px;writing-mode:lr-tb;fill:#963636;fill-opacity:1;stroke:none;stroke-width:1px;stroke-linecap:butt;stroke-linejoin:miter;stroke-opacity:1"
       d="m 34.470234,20.597216 0.166931,0 0,0.01955 -0.166931,0 0,-0.01955 z"
       id="path4973"
       inkscape:connector-curvature="0" />
    <path
       style="font-style:normal;font-variant:normal;font-weight:500;font-stretch:normal;font-size:80px;line-height:125%;font-family:'Roboto Mono Medium for Powerline';-inkscape-font-specification:'Roboto Mono Medium for Powerline Medium';letter-spacing:0px;word-spacing:0px;writing-mode:lr-tb;fill:#963636;fill-opacity:1;stroke:none;stroke-width:1px;stroke-linecap:butt;stroke-linejoin:miter;stroke-opacity:1"
       d="m 33.304449,20.62419 0.164977,0 0,0.01642 -0.164977,0 0,-0.01642 z"
       id="path4971"
       inkscape:connector-curvature="0" />
    <path
       style="font-style:normal;font-variant:normal;font-weight:500;font-stretch:normal;font-size:80px;line-height:125%;font-family:'Roboto Mono Medium for Powerline';-inkscape-font-specification:'Roboto Mono Medium for Powerline Medium';letter-spacing:0px;word-spacing:0px;writing-mode:lr-tb;fill:#963636;fill-opacity:1;stroke:none;stroke-width:1px;stroke-linecap:butt;stroke-linejoin:miter;stroke-opacity:1"
       d="m 33.976476,20.633182 0.171232,0 0,0.01955 -0.171232,0 0,-0.01955 z"
       id="path4969"
       inkscape:connector-curvature="0" />
    <path
       style="font-style:normal;font-variant:normal;font-weight:500;font-stretch:normal;font-size:80px;line-height:125%;font-family:'Roboto Mono Medium for Powerline';-inkscape-font-specification:'Roboto Mono Medium for Powerline Medium';letter-spacing:0px;word-spacing:0px;writing-mode:lr-tb;fill:#963636;fill-opacity:1;stroke:none;stroke-width:1px;stroke-linecap:butt;stroke-linejoin:miter;stroke-opacity:1"
       d="m 34.470234,20.633182 0.166931,0 0,0.01955 -0.166931,0 0,-0.01955 z"
       id="path4967"
       inkscape:connector-curvature="0" />
    <path
       style="font-style:normal;font-variant:normal;font-weight:500;font-stretch:normal;font-size:80px;line-height:125%;font-family:'Roboto Mono Medium for Powerline';-inkscape-font-specification:'Roboto Mono Medium for Powerline Medium';letter-spacing:0px;word-spacing:0px;writing-mode:lr-tb;fill:#963636;fill-opacity:1;stroke:none;stroke-width:1px;stroke-linecap:butt;stroke-linejoin:miter;stroke-opacity:1"
       d="m 33.304449,20.660157 0.164977,0 0,0.01799 -0.164977,0 0,-0.01799 z"
       id="path4965"
       inkscape:connector-curvature="0" />
    <path
       style="font-style:normal;font-variant:normal;font-weight:500;font-stretch:normal;font-size:80px;line-height:125%;font-family:'Roboto Mono Medium for Powerline';-inkscape-font-specification:'Roboto Mono Medium for Powerline Medium';letter-spacing:0px;word-spacing:0px;writing-mode:lr-tb;fill:#963636;fill-opacity:1;stroke:none;stroke-width:1px;stroke-linecap:butt;stroke-linejoin:miter;stroke-opacity:1"
       d="m 34.470234,20.669148 0.166931,0 0,0.04653 c -0.01802,-0.01801 -0.03053,-0.02697 -0.03753,-0.02697 l -0.129401,0 0,-0.01955 z"
       id="path4963"
       inkscape:connector-curvature="0" />
    <path
       style="font-style:normal;font-variant:normal;font-weight:500;font-stretch:normal;font-size:80px;line-height:125%;font-family:'Roboto Mono Medium for Powerline';-inkscape-font-specification:'Roboto Mono Medium for Powerline Medium';letter-spacing:0px;word-spacing:0px;writing-mode:lr-tb;fill:#963636;fill-opacity:1;stroke:none;stroke-width:1px;stroke-linecap:butt;stroke-linejoin:miter;stroke-opacity:1"
       d="m 33.976476,20.670712 0.171232,0 0,0.01642 -0.171232,0 0,-0.01642 z"
       id="path4961"
       inkscape:connector-curvature="0" />
    <path
       style="font-style:normal;font-variant:normal;font-weight:500;font-stretch:normal;font-size:80px;line-height:125%;font-family:'Roboto Mono Medium for Powerline';-inkscape-font-specification:'Roboto Mono Medium for Powerline Medium';letter-spacing:0px;word-spacing:0px;writing-mode:lr-tb;fill:#963636;fill-opacity:1;stroke:none;stroke-width:1px;stroke-linecap:butt;stroke-linejoin:miter;stroke-opacity:1"
       d="m 33.304449,20.696123 0.164977,0 0,0.01799 -0.164977,0 0,-0.01799 z"
       id="path4959"
       inkscape:connector-curvature="0" />
    <path
       style="font-style:normal;font-variant:normal;font-weight:500;font-stretch:normal;font-size:80px;line-height:125%;font-family:'Roboto Mono Medium for Powerline';-inkscape-font-specification:'Roboto Mono Medium for Powerline Medium';letter-spacing:0px;word-spacing:0px;writing-mode:lr-tb;fill:#963636;fill-opacity:1;stroke:none;stroke-width:1px;stroke-linecap:butt;stroke-linejoin:miter;stroke-opacity:1"
       d="m 33.978039,20.705115 0.169669,0 0,0.177096 c -9.93e-4,0 -0.0038,-5.63e-4 -0.0078,-0.0016 -0.004,-9.93e-4 -0.0072,-0.0012 -0.01016,-0.0012 -0.01702,0 -0.06762,0.03826 -0.151685,0.115328 l 0,-0.289687 z"
       id="path4957"
       inkscape:connector-curvature="0" />
    <path
       style="font-style:normal;font-variant:normal;font-weight:500;font-stretch:normal;font-size:80px;line-height:125%;font-family:'Roboto Mono Medium for Powerline';-inkscape-font-specification:'Roboto Mono Medium for Powerline Medium';letter-spacing:0px;word-spacing:0px;writing-mode:lr-tb;fill:#963636;fill-opacity:1;stroke:none;stroke-width:1px;stroke-linecap:butt;stroke-linejoin:miter;stroke-opacity:1"
       d="m 34.471797,20.705115 0.123145,0 c 0.008,-9.93e-4 0.02221,0.0096 0.04222,0.03167 l 0,0.143867 -0.165367,0 0,-0.05669 c 0.004,0.008 0.0124,0.01173 0.02541,0.01173 0.02402,0 0.03636,-0.01195 0.03636,-0.03597 0,-0.02101 -0.01009,-0.03167 -0.0301,-0.03167 -0.01801,0 -0.02866,0.01065 -0.03167,0.03167 l 0,-0.09461 z"
       id="path4955"
       inkscape:connector-curvature="0" />
    <path
       style="font-style:normal;font-variant:normal;font-weight:500;font-stretch:normal;font-size:80px;line-height:125%;font-family:'Roboto Mono Medium for Powerline';-inkscape-font-specification:'Roboto Mono Medium for Powerline Medium';letter-spacing:0px;word-spacing:0px;writing-mode:lr-tb;fill:#963636;fill-opacity:1;stroke:none;stroke-width:1px;stroke-linecap:butt;stroke-linejoin:miter;stroke-opacity:1"
       d="m 33.304449,20.73209 0.164977,0 0,0.01799 -0.164977,0 0,-0.01799 z"
       id="path4953"
       inkscape:connector-curvature="0" />
    <path
       style="font-style:normal;font-variant:normal;font-weight:500;font-stretch:normal;font-size:80px;line-height:125%;font-family:'Roboto Mono Medium for Powerline';-inkscape-font-specification:'Roboto Mono Medium for Powerline Medium';letter-spacing:0px;word-spacing:0px;writing-mode:lr-tb;fill:#963636;fill-opacity:1;stroke:none;stroke-width:1px;stroke-linecap:butt;stroke-linejoin:miter;stroke-opacity:1"
       d="m 33.304449,20.766884 0.164977,0 0,0.01955 -0.164977,0 0,-0.01955 z"
       id="path4951"
       inkscape:connector-curvature="0" />
    <path
       style="font-style:normal;font-variant:normal;font-weight:500;font-stretch:normal;font-size:80px;line-height:125%;font-family:'Roboto Mono Medium for Powerline';-inkscape-font-specification:'Roboto Mono Medium for Powerline Medium';letter-spacing:0px;word-spacing:0px;writing-mode:lr-tb;fill:#963636;fill-opacity:1;stroke:none;stroke-width:1px;stroke-linecap:butt;stroke-linejoin:miter;stroke-opacity:1"
       d="m 33.304449,20.80285 0.164977,0 0,0.17866 c -0.04504,-9.93e-4 -0.09992,-9.93e-4 -0.164977,0 l 0,-0.17866 z"
       id="path4949"
       inkscape:connector-curvature="0" />
    <path
       style="font-style:normal;font-variant:normal;font-weight:500;font-stretch:normal;font-size:80px;line-height:125%;font-family:'Roboto Mono Medium for Powerline';-inkscape-font-specification:'Roboto Mono Medium for Powerline Medium';letter-spacing:0px;word-spacing:0px;writing-mode:lr-tb;fill:#963636;fill-opacity:1;stroke:none;stroke-width:1px;stroke-linecap:butt;stroke-linejoin:miter;stroke-opacity:1"
       d="m 34.129723,20.946716 0.01799,0 0,0.06334 -0.009,0.009 c -0.005,0.006 -0.0078,0.01384 -0.0078,0.02384 0,0.01001 0.0041,0.01896 0.01212,0.02697 0.008,0.008 0.01697,0.01212 0.02698,0.01212 0.003,0 0.006,-0.0011 0.009,-0.0031 0.004,-0.003 0.0076,-0.0043 0.01055,-0.0043 0.003,0 0.0084,0.0043 0.01642,0.01329 0.008,0.008 0.01324,0.01268 0.01525,0.01368 0.002,9.92e-4 0.01152,0.0016 0.02854,0.0016 0.01401,0 0.02353,-0.0011 0.02854,-0.0031 0.01001,-0.004 0.02252,-0.01482 0.03753,-0.03284 l 0.04652,0 c -0.005,0.01101 -0.0074,0.0207 -0.0074,0.02971 0,0.02502 0.01195,0.03753 0.03596,0.03753 0.01101,0 0.02053,-0.0043 0.02854,-0.01329 0.008,-0.01001 0.01172,-0.02066 0.01172,-0.03167 0,-0.006 -0.0013,-0.01142 -0.0043,-0.01642 0.004,-0.004 0.0617,-0.0059 0.172796,-0.0059 0.009,0.002 0.03048,0.01936 0.0645,0.05238 0.03503,0.03303 0.05238,0.05207 0.05238,0.05708 -9.93e-4,9.93e-4 -0.004,0.0081 -0.009,0.02111 -0.07206,-0.07106 -0.116124,-0.106726 -0.132137,-0.106726 -0.02502,0 -0.03753,0.01307 -0.03753,0.03909 0,0.02702 0.01194,0.04066 0.03597,0.04066 0.01301,0 0.02665,-0.01065 0.04066,-0.03167 0.008,-9.93e-4 0.03545,0.02216 0.08249,0.06919 l -0.01329,0.01329 c -0.01001,-0.009 -0.02365,-0.01796 -0.04065,-0.02697 l -0.264278,0 c -0.004,-0.01901 -0.0081,-0.03152 -0.01212,-0.03753 -0.004,-0.007 -0.01353,-0.01055 -0.02854,-0.01055 -0.02602,0 -0.0387,0.01307 -0.0387,0.03909 0,0.02702 0.01251,0.04066 0.03753,0.04066 0.004,0 0.0094,-0.0028 0.01642,-0.0078 0.008,-0.006 0.01342,-0.009 0.01642,-0.009 l 0.274832,0 c 0.005,0.007 0.01171,0.01411 0.02072,0.02111 l -0.381165,0 c -0.003,-0.02201 -0.01551,-0.03284 -0.03753,-0.03284 -0.02101,0 -0.03465,0.01195 -0.04066,0.03597 l -0.205634,0 0,-0.16224 c 0.05504,-0.05504 0.09837,-0.09669 0.129401,-0.12471 z"
       id="path4947"
       inkscape:connector-curvature="0" />
    <path
       style="font-style:normal;font-variant:normal;font-weight:500;font-stretch:normal;font-size:80px;line-height:125%;font-family:'Roboto Mono Medium for Powerline';-inkscape-font-specification:'Roboto Mono Medium for Powerline Medium';letter-spacing:0px;word-spacing:0px;writing-mode:lr-tb;fill:#963636;fill-opacity:1;stroke:none;stroke-width:1px;stroke-linecap:butt;stroke-linejoin:miter;stroke-opacity:1"
       d="m 34.470234,20.94828 0.166931,0 0,0.0301 -0.166931,0 0,-0.0301 z"
       id="path4945"
       inkscape:connector-curvature="0" />
    <path
       style="font-style:normal;font-variant:normal;font-weight:500;font-stretch:normal;font-size:80px;line-height:125%;font-family:'Roboto Mono Medium for Powerline';-inkscape-font-specification:'Roboto Mono Medium for Powerline Medium';letter-spacing:0px;word-spacing:0px;writing-mode:lr-tb;fill:#963636;fill-opacity:1;stroke:none;stroke-width:1px;stroke-linecap:butt;stroke-linejoin:miter;stroke-opacity:1"
       d="m 34.470234,20.992065 0.166931,0 0,0.02385 -0.166931,0 0,-0.02385 z"
       id="path4943"
       inkscape:connector-curvature="0" />
    <path
       style="font-style:normal;font-variant:normal;font-weight:500;font-stretch:normal;font-size:80px;line-height:125%;font-family:'Roboto Mono Medium for Powerline';-inkscape-font-specification:'Roboto Mono Medium for Powerline Medium';letter-spacing:0px;word-spacing:0px;writing-mode:lr-tb;fill:#963636;fill-opacity:1;stroke:none;stroke-width:1px;stroke-linecap:butt;stroke-linejoin:miter;stroke-opacity:1"
       d="m 34.470234,21.030768 0.157547,0 c 0.008,0.007 0.01138,0.01822 0.0094,0.03323 0.007,0 0.01726,0.003 0.03128,0.009 0.03503,0.02602 0.05277,0.04563 0.05277,0.05864 l 0,0.02229 c -0.03303,-0.02802 -0.06982,-0.06257 -0.109855,-0.1036 l -0.141127,0 0,-0.01955 z"
       id="path4941"
       inkscape:connector-curvature="0" />
    <path
       style="font-style:normal;font-variant:normal;font-weight:500;font-stretch:normal;font-size:80px;line-height:125%;font-family:'Roboto Mono Medium for Powerline';-inkscape-font-specification:'Roboto Mono Medium for Powerline Medium';letter-spacing:0px;word-spacing:0px;writing-mode:lr-tb;fill:#963636;fill-opacity:1;stroke:none;stroke-width:1px;stroke-linecap:butt;stroke-linejoin:miter;stroke-opacity:1"
       d="m 33.304449,21.046015 0.164977,0 0,0.0344 -0.164977,0 0,-0.0344 z"
       id="path4939"
       inkscape:connector-curvature="0" />
    <path
       style="font-style:normal;font-variant:normal;font-weight:500;font-stretch:normal;font-size:80px;line-height:125%;font-family:'Roboto Mono Medium for Powerline';-inkscape-font-specification:'Roboto Mono Medium for Powerline Medium';letter-spacing:0px;word-spacing:0px;writing-mode:lr-tb;fill:#963636;fill-opacity:1;stroke:none;stroke-width:1px;stroke-linecap:butt;stroke-linejoin:miter;stroke-opacity:1"
       d="m 33.693435,21.065562 c 0.006,0 0.04129,0.03342 0.106336,0.100472 l 0,0.0301 c -0.03002,-0.03002 -0.07353,-0.07054 -0.130575,-0.121583 0.01401,-0.006 0.02223,-0.009 0.02424,-0.009 z"
       id="path4937"
       inkscape:connector-curvature="0" />
    <path
       style="font-style:normal;font-variant:normal;font-weight:500;font-stretch:normal;font-size:80px;line-height:125%;font-family:'Roboto Mono Medium for Powerline';-inkscape-font-specification:'Roboto Mono Medium for Powerline Medium';letter-spacing:0px;word-spacing:0px;writing-mode:lr-tb;fill:#963636;fill-opacity:1;stroke:none;stroke-width:1px;stroke-linecap:butt;stroke-linejoin:miter;stroke-opacity:1"
       d="m 34.207522,21.067126 0.08718,0 c -0.008,0.01301 -0.02238,0.01955 -0.0434,0.01955 -0.02001,0 -0.03477,-0.0065 -0.04378,-0.01955 z"
       id="path4935"
       inkscape:connector-curvature="0" />
    <path
       style="font-style:normal;font-variant:normal;font-weight:500;font-stretch:normal;font-size:80px;line-height:125%;font-family:'Roboto Mono Medium for Powerline';-inkscape-font-specification:'Roboto Mono Medium for Powerline Medium';letter-spacing:0px;word-spacing:0px;writing-mode:lr-tb;fill:#963636;fill-opacity:1;stroke:none;stroke-width:1px;stroke-linecap:butt;stroke-linejoin:miter;stroke-opacity:1"
       d="m 33.660204,21.08941 c 0.008,0 0.03246,0.02074 0.0735,0.06177 0.02202,0.02201 0.04405,0.04422 0.06607,0.06724 l 0,0.0301 c -0.03203,-0.03102 -0.07908,-0.07565 -0.141129,-0.133701 -0.004,-0.002 -0.0094,-0.0028 -0.01642,-0.0028 0.006,-0.01501 0.01198,-0.02267 0.01798,-0.02267 z"
       id="path4933"
       inkscape:connector-curvature="0" />
    <path
       style="font-style:normal;font-variant:normal;font-weight:500;font-stretch:normal;font-size:80px;line-height:125%;font-family:'Roboto Mono Medium for Powerline';-inkscape-font-specification:'Roboto Mono Medium for Powerline Medium';letter-spacing:0px;word-spacing:0px;writing-mode:lr-tb;fill:#963636;fill-opacity:1;stroke:none;stroke-width:1px;stroke-linecap:butt;stroke-linejoin:miter;stroke-opacity:1"
       d="m 33.328296,21.094101 0.14113,0 0,0.01799 -0.04496,-0.0031 c -0.01901,-9.93e-4 -0.03338,8.51e-4 -0.0434,0.0059 -0.01001,0.005 -0.02252,0.01565 -0.03753,0.03167 -0.01901,0.02102 -0.03208,0.03353 -0.03909,0.03753 -9.93e-4,-0.01001 0.0031,-0.02196 0.01212,-0.03596 0.009,-0.01502 0.01329,-0.02753 0.01329,-0.03753 0,-0.005 -5.63e-4,-0.01041 -0.0016,-0.01642 z"
       id="path4931"
       inkscape:connector-curvature="0" />
    <path
       style="font-style:normal;font-variant:normal;font-weight:500;font-stretch:normal;font-size:80px;line-height:125%;font-family:'Roboto Mono Medium for Powerline';-inkscape-font-specification:'Roboto Mono Medium for Powerline Medium';letter-spacing:0px;word-spacing:0px;writing-mode:lr-tb;fill:#963636;fill-opacity:1;stroke:none;stroke-width:1px;stroke-linecap:butt;stroke-linejoin:miter;stroke-opacity:1"
       d="m 33.381073,21.130067 0.08835,0 0,0.01799 c -0.01801,0.002 -0.03538,0.0033 -0.05238,0.0043 -0.02301,0.004 -0.0344,0.01821 -0.0344,0.04222 0,0.02502 0.01195,0.03753 0.03597,0.03753 0.02402,0 0.03709,-0.01082 0.03909,-0.03284 -9.93e-4,-0.007 -0.0016,-0.01653 -0.0016,-0.02854 0.004,-0.003 0.0076,-0.0047 0.01055,-0.0047 l 0,0.126274 -0.05864,0 c -0.006,-0.03203 -0.01964,-0.04809 -0.04066,-0.04809 -0.02702,0 -0.04026,0.01325 -0.04026,0.04027 0,0.02602 0.01268,0.03909 0.0387,0.03909 0.003,0 0.0082,-0.0024 0.01525,-0.0074 0.008,-0.005 0.01342,-0.0074 0.01642,-0.0074 l 0.07193,0 0,0.01955 c -0.01301,-9.93e-4 -0.02794,-4.38e-4 -0.04496,0.0016 -0.006,0.005 -0.01497,0.01098 -0.02698,0.01799 l -0.03753,0 c -0.01602,0 -0.02909,-5.63e-4 -0.03909,-0.0016 -0.01201,-0.01501 -0.01799,-0.02696 -0.01799,-0.03597 l 0,-0.10829 c 0.009,-0.006 0.03516,-0.0299 0.07819,-0.07193 z"
       id="path4929"
       inkscape:connector-curvature="0" />
    <path
       style="font-style:normal;font-variant:normal;font-weight:500;font-stretch:normal;font-size:80px;line-height:125%;font-family:'Roboto Mono Medium for Powerline';-inkscape-font-specification:'Roboto Mono Medium for Powerline Medium';letter-spacing:0px;word-spacing:0px;writing-mode:lr-tb;fill:#963636;fill-opacity:1;stroke:none;stroke-width:1px;stroke-linecap:butt;stroke-linejoin:miter;stroke-opacity:1"
       d="m 33.634794,21.130067 0.02228,0 0.144256,0.139566 0,0.02267 -0.01486,0 -0.151685,-0.144256 0,-0.01799 z"
       id="path4927"
       inkscape:connector-curvature="0" />
    <path
       style="font-style:normal;font-variant:normal;font-weight:500;font-stretch:normal;font-size:80px;line-height:125%;font-family:'Roboto Mono Medium for Powerline';-inkscape-font-specification:'Roboto Mono Medium for Powerline Medium';letter-spacing:0px;word-spacing:0px;writing-mode:lr-tb;fill:#963636;fill-opacity:1;stroke:none;stroke-width:1px;stroke-linecap:butt;stroke-linejoin:miter;stroke-opacity:1"
       d="m 33.634794,21.16447 c 0.03403,0.03303 0.08407,0.08064 0.150121,0.142694 0.003,9.93e-4 0.0084,0.0016 0.01642,0.0016 l 0,0.01955 -0.0301,0 c -0.03102,-0.03002 -0.07639,-0.07167 -0.136438,-0.124711 l 0,-0.03909 z"
       id="path4925"
       inkscape:connector-curvature="0" />
    <path
       style="font-style:normal;font-variant:normal;font-weight:500;font-stretch:normal;font-size:80px;line-height:125%;font-family:'Roboto Mono Medium for Powerline';-inkscape-font-specification:'Roboto Mono Medium for Powerline Medium';letter-spacing:0px;word-spacing:0px;writing-mode:lr-tb;fill:#963636;fill-opacity:1;stroke:none;stroke-width:1px;stroke-linecap:butt;stroke-linejoin:miter;stroke-opacity:1"
       d="m 33.643785,21.236794 c 0.01201,0.004 0.03534,0.02379 0.07037,0.05982 0.03203,0.03303 0.05704,0.04965 0.07506,0.04965 0.004,0 0.0081,-5.64e-4 0.01212,-0.0016 l 0,0.01799 c -0.008,0.004 -0.02182,0.0059 -0.04183,0.0059 -9.93e-4,0 -0.01464,-0.01138 -0.04065,-0.0344 -0.02602,-0.02402 -0.04208,-0.03765 -0.04809,-0.04066 -0.004,0 -0.01595,-1.73e-4 -0.03597,-0.0012 l 0,-0.03753 c 0,-0.006 0.003,-0.01198 0.009,-0.01799 z"
       id="path4923"
       inkscape:connector-curvature="0" />
    <path
       style="font-style:normal;font-variant:normal;font-weight:500;font-stretch:normal;font-size:80px;line-height:125%;font-family:'Roboto Mono Medium for Powerline';-inkscape-font-specification:'Roboto Mono Medium for Powerline Medium';letter-spacing:0px;word-spacing:0px;writing-mode:lr-tb;fill:#963636;fill-opacity:1;stroke:none;stroke-width:1px;stroke-linecap:butt;stroke-linejoin:miter;stroke-opacity:1"
       d="m 34.470234,21.245786 0.154811,0 c 0.003,0.002 0.0071,0.005 0.01212,0.009 l 0,0.02228 c -0.006,-0.005 -0.01254,-0.0074 -0.01955,-0.0074 -0.02602,0 -0.03909,0.01437 -0.03909,0.0434 0,0.02402 0.01138,0.03636 0.0344,0.03636 0.01101,0 0.01923,-0.0011 0.02423,-0.0031 l 0,0.0301 c -0.003,9.93e-4 -0.01235,0.0012 -0.02737,0.0012 -0.01001,0 -0.03334,-0.01792 -0.07037,-0.05395 -0.03603,-0.03703 -0.05918,-0.05664 -0.06919,-0.05864 l 0,-0.01916 z"
       id="path4921"
       inkscape:connector-curvature="0" />
    <path
       style="font-style:normal;font-variant:normal;font-weight:500;font-stretch:normal;font-size:80px;line-height:125%;font-family:'Roboto Mono Medium for Powerline';-inkscape-font-specification:'Roboto Mono Medium for Powerline Medium';letter-spacing:0px;word-spacing:0px;writing-mode:lr-tb;fill:#963636;fill-opacity:1;stroke:none;stroke-width:1px;stroke-linecap:butt;stroke-linejoin:miter;stroke-opacity:1"
       d="m 34.470234,21.281753 c 0.01602,0.01001 0.03675,0.02793 0.06177,0.05395 0.02502,0.02602 0.04406,0.04338 0.05707,0.05238 0.003,0.003 0.01906,0.0052 0.04809,0.0062 l 0,0.01799 -0.02737,0 c -0.005,0 -0.01041,5.63e-4 -0.01642,0.0016 l -0.0074,0 c -0.02202,0 -0.03509,-0.0011 -0.03909,-0.0031 -0.008,-0.004 -0.02238,-0.01708 -0.0434,-0.03909 0.002,-0.006 0.0028,-0.01198 0.0028,-0.01799 0,-0.02902 -0.01194,-0.04396 -0.03596,-0.04496 l 0,-0.02697 z"
       id="path4919"
       inkscape:connector-curvature="0" />
    <path
       style="font-style:normal;font-variant:normal;font-weight:500;font-stretch:normal;font-size:80px;line-height:125%;font-family:'Roboto Mono Medium for Powerline';-inkscape-font-specification:'Roboto Mono Medium for Powerline Medium';letter-spacing:0px;word-spacing:0px;writing-mode:lr-tb;fill:#963636;fill-opacity:1;stroke:none;stroke-width:1px;stroke-linecap:butt;stroke-linejoin:miter;stroke-opacity:1"
       d="m 33.634794,21.308727 0.03753,0 c 0.01801,0.01901 0.0436,0.04235 0.07662,0.07037 0.01201,0 0.02937,5.63e-4 0.05238,0.0016 l 0,0.02267 -0.05238,0 c -0.01001,0 -0.03858,-0.02372 -0.08562,-0.07076 -0.005,-0.003 -0.01452,-0.0043 -0.02854,-0.0043 l 0,-0.01955 z"
       id="path4917"
       inkscape:connector-curvature="0" />
    <path
       style="font-style:normal;font-variant:normal;font-weight:500;font-stretch:normal;font-size:80px;line-height:125%;font-family:'Roboto Mono Medium for Powerline';-inkscape-font-specification:'Roboto Mono Medium for Powerline Medium';letter-spacing:0px;word-spacing:0px;writing-mode:lr-tb;fill:#963636;fill-opacity:1;stroke:none;stroke-width:1px;stroke-linecap:butt;stroke-linejoin:miter;stroke-opacity:1"
       d="m 33.426031,21.344694 0.0434,0 0,0.01955 c -0.01801,-0.004 -0.0365,0.0044 -0.05551,0.02541 -0.01901,0.02001 -0.03338,0.0301 -0.0434,0.0301 -0.008,0 -0.01753,-0.0054 -0.02854,-0.01642 -0.01101,-0.01101 -0.02352,-0.01642 -0.03753,-0.01642 l 0,-0.02267 c 0.04204,9.93e-4 0.07303,4.38e-4 0.09304,-0.0016 0.002,0 0.0067,-0.003 0.01368,-0.009 0.007,-0.006 0.01185,-0.009 0.01486,-0.009 z"
       id="path4915"
       inkscape:connector-curvature="0" />
    <path
       style="font-style:normal;font-variant:normal;font-weight:500;font-stretch:normal;font-size:80px;line-height:125%;font-family:'Roboto Mono Medium for Powerline';-inkscape-font-specification:'Roboto Mono Medium for Powerline Medium';letter-spacing:0px;word-spacing:0px;writing-mode:lr-tb;fill:#963636;fill-opacity:1;stroke:none;stroke-width:1px;stroke-linecap:butt;stroke-linejoin:miter;stroke-opacity:1"
       d="m 33.634794,21.344694 0.01642,0 c 9.93e-4,0 0.01295,0.01082 0.03597,0.03284 0.02302,0.02201 0.03795,0.03453 0.04496,0.03753 0.01501,0 0.03817,5.63e-4 0.0692,0.0016 l 0,0.01799 c -0.01901,0.002 -0.03806,0.0031 -0.05708,0.0031 -0.02002,0 -0.04036,-0.0011 -0.06138,-0.0031 0,-0.02502 -0.0017,-0.04069 -0.0047,-0.0477 -0.006,-0.01201 -0.02038,-0.01855 -0.04339,-0.01955 l 0,-0.02267 z"
       id="path4913"
       inkscape:connector-curvature="0" />
    <path
       style="font-style:normal;font-variant:normal;font-weight:500;font-stretch:normal;font-size:80px;line-height:125%;font-family:'Roboto Mono Medium for Powerline';-inkscape-font-specification:'Roboto Mono Medium for Powerline Medium';letter-spacing:0px;word-spacing:0px;writing-mode:lr-tb;fill:#963636;fill-opacity:1;stroke:none;stroke-width:1px;stroke-linecap:butt;stroke-linejoin:miter;stroke-opacity:1"
       d="m 33.445577,21.38066 0.02385,0 c 9.92e-4,0.008 -2.99e-4,0.01995 -0.0043,0.03597 -0.004,0.01601 -0.0059,0.02723 -0.0059,0.03323 0,0.02502 0.01268,0.03753 0.0387,0.03753 0.003,0 0.0058,-5.63e-4 0.0078,-0.0016 0.002,-0.002 0.0044,-0.0031 0.0074,-0.0031 0.01001,0 0.02849,0.01494 0.05551,0.04496 l 0.23261,0 0,0.05434 c 0,0.01301 -0.009,0.02682 -0.02698,0.04183 -0.01801,0.01502 -0.03407,0.02267 -0.04809,0.02267 -0.003,0 -0.0095,-0.0041 -0.01955,-0.01212 -0.01001,-0.008 -0.01711,-0.01212 -0.02111,-0.01212 -0.002,0 -0.0057,0.0017 -0.01173,0.0047 -0.006,9.93e-4 -0.01068,9.93e-4 -0.01368,0 -0.002,0.002 -0.0031,0.0085 -0.0031,0.01955 l -0.121584,0 c -0.01101,-0.01301 -0.02352,-0.01955 -0.03753,-0.01955 -0.02001,0 -0.03028,0.0065 -0.03128,0.01955 l -0.03479,0 0,-0.01525 c 0.02001,-0.01401 0.0301,-0.02782 0.0301,-0.04183 0,-0.02502 -0.01251,-0.03753 -0.03753,-0.03753 -0.02502,0 -0.03753,0.01364 -0.03753,0.04066 0,0.01501 0.0041,0.02453 0.01212,0.02854 0.008,0.004 0.01285,0.0083 0.01486,0.01329 0.003,0.005 0.0047,0.0091 0.0047,0.01212 l -0.05121,0 c 0,-9.93e-4 5.62e-4,-0.0034 0.0016,-0.0074 9.93e-4,-0.004 0.0016,-0.0076 0.0016,-0.01055 0,-0.02502 -0.01307,-0.03753 -0.03909,-0.03753 -0.02602,0 -0.03797,0.01848 -0.03597,0.05551 l -0.05121,0 c 0.002,-0.01001 -9.93e-4,-0.01897 -0.009,-0.02697 -0.008,-0.008 -0.01696,-0.01212 -0.02697,-0.01212 -0.009,0 -0.01797,0.0047 -0.02698,0.01368 -0.009,0.009 -0.01498,0.01442 -0.01799,0.01642 -0.01201,0.006 -0.0204,0.009 -0.02541,0.009 l -0.03323,0 c 0.02502,-0.03703 0.04406,-0.05551 0.05708,-0.05551 0.002,0 0.0044,7.09e-4 0.0074,0.0028 0.004,9.93e-4 0.0076,0.0016 0.01055,0.0016 0.02902,0 0.04379,-0.01381 0.04379,-0.04183 0,-0.02502 -0.01195,-0.03753 -0.03597,-0.03753 -0.02502,0 -0.03865,0.01251 -0.04065,0.03753 9.93e-4,0.007 9.93e-4,0.01653 0,0.02854 -0.005,0.008 -0.01565,0.02108 -0.03167,0.03909 -0.01601,0.01701 -0.02684,0.02541 -0.03284,0.02541 l -0.04809,0 0,-0.16224 0.265839,0 c 0.003,-0.003 0.0043,-0.0084 0.0043,-0.01642 0.009,9.93e-4 0.02506,-0.008 0.04809,-0.02697 0.01001,0 0.02308,-0.003 0.03909,-0.009 0.004,-0.004 0.01297,-0.01352 0.02698,-0.02854 0.01401,-0.01501 0.02297,-0.02267 0.02697,-0.02267 z"
       id="path4911"
       inkscape:connector-curvature="0" />
    <path
       style="font-style:normal;font-variant:normal;font-weight:500;font-stretch:normal;font-size:80px;line-height:125%;font-family:'Roboto Mono Medium for Powerline';-inkscape-font-specification:'Roboto Mono Medium for Powerline Medium';letter-spacing:0px;word-spacing:0px;writing-mode:lr-tb;fill:#963636;fill-opacity:1;stroke:none;stroke-width:1px;stroke-linecap:butt;stroke-linejoin:miter;stroke-opacity:1"
       d="m 34.488217,21.38066 c 0.009,0.01201 0.02433,0.02677 0.04535,0.04379 0.008,0.004 0.04255,0.0059 0.1036,0.0059 l 0,0.09617 c 0,0.003 -0.0023,0.0073 -0.0062,0.01329 -0.003,0.005 -0.0043,0.0086 -0.0043,0.01055 -9.93e-4,0.006 8.51e-4,0.02336 0.0059,0.05238 -0.003,0.009 -0.01196,0.01966 -0.02697,0.03167 -0.01401,0.01201 -0.0254,0.01742 -0.0344,0.01642 l -0.02423,0 c 0.004,-0.02302 -0.0085,-0.0344 -0.03753,-0.0344 -0.01001,0 -0.01711,0.0011 -0.02111,0.0031 l -0.01055,-0.009 0.01955,-0.02267 c 0.006,-0.007 0.009,-0.0154 0.009,-0.02541 0,-0.02502 -0.0078,-0.03697 -0.02384,-0.03597 -0.004,0 -0.0081,1.73e-4 -0.01212,0.0012 l 0,-0.138002 c 0.005,-9.93e-4 0.01098,-0.004 0.01799,-0.009 z"
       id="path4909"
       inkscape:connector-curvature="0" />
    <path
       style="font-style:normal;font-variant:normal;font-weight:500;font-stretch:normal;font-size:80px;line-height:125%;font-family:'Roboto Mono Medium for Powerline';-inkscape-font-specification:'Roboto Mono Medium for Powerline Medium';letter-spacing:0px;word-spacing:0px;writing-mode:lr-tb;fill:#963636;fill-opacity:1;stroke:none;stroke-width:1px;stroke-linecap:butt;stroke-linejoin:miter;stroke-opacity:1"
       d="m 33.661767,21.443602 c 0.003,0 0.0079,0.0023 0.01486,0.0062 0.007,0.004 0.01224,0.0059 0.01525,0.0059 l 0.109465,0 0,0.01799 -0.166541,0 0,-0.02541 c 0.003,0 0.0073,-5.63e-4 0.01329,-0.0016 0.006,-0.002 0.01068,-0.0031 0.01368,-0.0031 z"
       id="path4907"
       inkscape:connector-curvature="0" />
    <path
       style="font-style:normal;font-variant:normal;font-weight:500;font-stretch:normal;font-size:80px;line-height:125%;font-family:'Roboto Mono Medium for Powerline';-inkscape-font-specification:'Roboto Mono Medium for Powerline Medium';letter-spacing:0px;word-spacing:0px;writing-mode:lr-tb;fill:#963636;fill-opacity:1;stroke:none;stroke-width:1px;stroke-linecap:butt;stroke-linejoin:miter;stroke-opacity:1"
       d="m 33.54605,21.48426 0.06607,0 c 0.003,0 0.0052,0.0017 0.0062,0.0047 9.93e-4,0.002 0.0028,0.0028 0.0059,0.0028 l 0.177097,0 0,0.01955 -0.186089,0 c -0.03503,0 -0.05818,-0.009 -0.06919,-0.02697 z"
       id="path4905"
       inkscape:connector-curvature="0" />
    <path
       style="font-style:normal;font-variant:normal;font-weight:500;font-stretch:normal;font-size:80px;line-height:125%;font-family:'Roboto Mono Medium for Powerline';-inkscape-font-specification:'Roboto Mono Medium for Powerline Medium';letter-spacing:0px;word-spacing:0px;writing-mode:lr-tb;fill:#963636;fill-opacity:1;stroke:none;stroke-width:1px;stroke-linecap:butt;stroke-linejoin:miter;stroke-opacity:1"
       d="m 34.470234,21.546028 c 0.004,-9.93e-4 0.01,8.51e-4 0.01799,0.0059 0.009,0.005 0.01368,0.0099 0.01368,0.01486 0,0.009 -0.006,0.01611 -0.01799,0.02111 l -0.01368,0 0,-0.04183 z"
       id="path4888"
       inkscape:connector-curvature="0" />
    <path
       inkscape:connector-curvature="0"
       id="path4832"
       style="font-style:normal;font-variant:normal;font-weight:500;font-stretch:normal;font-size:80px;line-height:125%;font-family:'Roboto Mono Medium for Powerline';-inkscape-font-specification:'Roboto Mono Medium for Powerline Medium';letter-spacing:0px;word-spacing:0px;writing-mode:lr-tb;fill:#ad4444;fill-opacity:1;stroke:none;stroke-width:1px;stroke-linecap:butt;stroke-linejoin:miter;stroke-opacity:1"
       d="m 45.83569,17.983875 q 0,-0.517882 -0.232272,-0.906294 -0.221711,-0.39837 -0.644021,-0.697149 -0.411753,-0.298778 -0.992427,-0.517882 -0.570119,-0.229063 -1.245815,-0.418289 -0.907964,-0.248982 -1.794814,-0.617475 -0.876294,-0.368493 -1.573106,-0.896335 -0.686253,-0.5378 -1.11912,-1.244908 -0.422309,-0.717068 -0.422309,-1.65324 0,-0.936171 0.422309,-1.6731574 0.432867,-0.7469455 1.150794,-1.2648277 0.717926,-0.5178822 1.668124,-0.7967418 0.950196,-0.2788596 1.984856,-0.2788596 1.108562,0 2.069318,0.3286561 0.971312,0.3186967 1.689238,0.9062937 0.728484,0.5776378 1.150794,1.3942981 0.422309,0.8067016 0.432866,1.7926686 l -2.533858,0 Q 45.793459,10.892874 45.592861,10.444706 45.402823,9.9865796 45.043859,9.6579238 44.695454,9.3292677 44.188682,9.1500008 43.681911,8.9707339 43.016772,8.9707339 q -0.570117,0 -1.055774,0.1394298 -0.485655,0.1394298 -0.844619,0.4083303 -0.348405,0.2689002 -0.549003,0.647353 -0.200598,0.378452 -0.200598,0.856497 0,0.507923 0.274503,0.886375 0.2745,0.368493 0.717926,0.647353 0.443424,0.27886 1.013544,0.488004 0.580676,0.199186 1.203581,0.368493 0.960755,0.268901 1.837048,0.667272 0.876294,0.388411 1.541429,0.94613 0.665139,0.547761 1.055775,1.274787 0.390638,0.727027 0.390638,1.663199 0,0.966049 -0.432869,1.703035 -0.432867,0.736987 -1.161351,1.23495 -0.728483,0.497965 -1.689238,0.756904 -0.960756,0.248982 -2.005973,0.248982 -0.707367,0 -1.404179,-0.12947 -0.69681,-0.12947 -1.340834,-0.388413 -0.633464,-0.258939 -1.182467,-0.637393 -0.549003,-0.38841 -0.960753,-0.886374 -0.401195,-0.507923 -0.633464,-1.125398 -0.232272,-0.627434 -0.242829,-1.374379 l 2.544415,0 q 0.05279,0.657311 0.306174,1.145316 0.253386,0.488004 0.675696,0.81666 0.422309,0.318697 0.981872,0.488004 0.570117,0.159349 1.256369,0.159349 0.57012,0 1.066334,-0.129471 0.496212,-0.12947 0.865734,-0.378452 0.369521,-0.258941 0.580676,-0.627434 0.211155,-0.378453 0.211155,-0.856498 z" />
    <text
       xml:space="preserve"
       style="font-style:normal;font-weight:normal;font-size:4.93888903px;line-height:125%;font-family:sans-serif;letter-spacing:0px;word-spacing:0px;writing-mode:lr-tb;fill:#963636;fill-opacity:1;stroke:none;stroke-width:1px;stroke-linecap:butt;stroke-linejoin:miter;stroke-opacity:1"
       x="48.026466"
       y="21.869728"
       id="text4693"
       sodipodi:linespacing="125%"><tspan
         sodipodi:role="line"
         id="tspan4695"
         x="48.026466"
         y="21.869728"
         style="font-style:normal;font-variant:normal;font-weight:normal;font-stretch:normal;font-size:19.75555611px;font-family:'Liberation Mono for Powerline';-inkscape-font-specification:'Liberation Mono for Powerline';letter-spacing:0.28222221px;fill:#963636;fill-opacity:1" /></text>
    <text
       xml:space="preserve"
       style="font-style:normal;font-weight:normal;font-size:5.80704927px;line-height:125%;font-family:sans-serif;letter-spacing:0px;word-spacing:0px;writing-mode:lr-tb;fill:#963636;fill-opacity:1;stroke:none;stroke-width:1px;stroke-linecap:butt;stroke-linejoin:miter;stroke-opacity:1"
       x="13.768764"
       y="27.320684"
       id="text5017"
       sodipodi:linespacing="125%"><tspan
         sodipodi:role="line"
         id="tspan5019"
         x="13.768764"
         y="27.320684"
         style="font-style:normal;font-variant:normal;font-weight:500;font-stretch:normal;font-family:'Roboto Mono Medium for Powerline';-inkscape-font-specification:'Roboto Mono Medium for Powerline Medium';fill:#963636;fill-opacity:1">LABORATORY</tspan></text>
    <rect
       style="fill:none;fill-opacity:0.17919078;fill-rule:evenodd;stroke:#ad4444;stroke-width:0.28222221px;stroke-linecap:butt;stroke-linejoin:miter;stroke-opacity:1"
       id="rect5021"
       width="22.460184"
       height="16.051388"
       x="14.346296"
       y="6.2574077" />
  </g>
</svg>
